<svg xmlns="http://www.w3.org/2000/svg" viewBox="0 0 30 30" enable-background="new 0 0 30 30"><path fill="#31343A" d="M14.8 0c2.1 0 4 .3 5.9 1.1s3.4 1.8 4.8 3.1 2.5 2.9 3.3 4.7c.8 1.8 1.2 3.8 1.3 5.8 0 2.1-.3 4-1.1 5.9-.8 1.8-1.8 3.4-3.2 4.8-1.3 1.4-2.9 2.5-4.7 3.3-1.8.8-3.7 1.2-5.8 1.3-2.1 0-4-.4-5.9-1.1-1.8-.8-3.4-1.8-4.8-3.1s-2.5-2.9-3.3-4.7c-.8-1.9-1.3-3.8-1.3-5.9 0-2.1.3-4 1.1-5.9s1.8-3.4 3.2-4.8 2.9-2.4 4.7-3.3c1.8-.8 3.7-1.2 5.8-1.2zm-2.2 24.3c.5 0 1.4-.3 2.5-.8 1.2-.5 2.4-1.4 3.7-2.6l-.6-.8c-.5.4-1 .7-1.5.9-.5.2-.7.3-.9.3-.3 0-.3-.4-.1-1.2l1.4-5.2c.3-1 .3-1.7.2-2.3-.1-.6-.4-.8-.9-.8-.6 0-1.6.3-2.8.9-1.3.6-2.6 1.4-3.8 2.5l.5.8c.4-.3.9-.5 1.4-.8.5-.2.9-.4 1-.4.3 0 .3.4 0 1.1l-1.2 5c-.3 1.4-.4 2.3-.1 2.7.3.5.7.7 1.2.7zm3.9-19.3c-1 0-1.7.3-2.2.8-.5.6-.7 1.1-.7 1.6 0 .6.1 1.1.5 1.4.3.3.9.5 1.6.5.9 0 1.5-.2 2-.8.5-.5.7-1.1.7-1.7 0-.5-.1-.9-.4-1.3-.3-.3-.8-.5-1.5-.5z"/></svg>