<svg xmlns="http://www.w3.org/2000/svg" viewBox="0 0 164 30" enable-background="new 0 0 164 30"><path fill="#FFE36C" d="M27 0h-24c-1.7 0-3 1.3-3 3v24c0 1.7 1.3 3 3 3h24c1.7 0 3-1.3 3-3v-24c0-1.7-1.3-3-3-3zm-5 22.5c0 .8 0 1.5-.8 1.5h-.8c-.8 0-1.4-.7-1.4-1.2 0-.1.1-.7.1-.7s-1.5 1.8-4.4 1.8c-4.3 0-8.2-3.2-8.2-8.4 0-5.1 3.7-8.7 8.8-8.7 2.7 0 4.8 1 5.4 1.5.7.5.8 1.1.3 1.8l-.6 1c-.4.7-1 .8-1.8.4s-1.7-.8-3.1-.8c-3.3 0-4.8 2.2-4.8 4.8 0 3.1 2.3 5 4.8 5 2.4 0 3.5-1.4 3.5-1.4v-1.1h-1.2c-.8 0-1.8-.7-1.8-1.5v-.9c0-.8.9-1.6 1.8-1.6h3.4c.8 0 .8.7.8 1.6v6.9zM119.5 22c-4.6 0-6.9-3-8.6-5.2-1.6-2.1-2.4-2.8-3.9-2.8s-2.3.8-3.9 2.8c-1.7 2.2-4 5.2-8.6 5.2s-6.9-3-8.6-5.2c-1.6-2-2.4-2.8-3.9-2.8s-2.3.8-3.9 2.8c-1.7 2.2-4 5.2-8.6 5.2s-6.9-3-8.6-5.2c-1.6-2-2.4-2.8-3.9-2.8s-2.3.8-3.9 2.8c-1.7 2.2-4 5.2-8.6 5.2-4.8 0-7.5-3.4-8.9-5.2-1-1.3-.8-3.2.5-4.2s3.2-.8 4.2.5c1.5 1.9 2.5 2.8 4.1 2.8 1.5 0 2.3-.8 3.9-2.8 1.8-2.1 4.1-5.1 8.7-5.1s6.9 3 8.6 5.2c1.6 2.1 2.4 2.8 3.9 2.8s2.3-.8 3.9-2.8c1.7-2.2 4-5.2 8.6-5.2s6.9 3 8.6 5.2c1.6 2.1 2.4 2.8 3.9 2.8s2.3-.8 3.9-2.8c1.7-2.2 4-5.2 8.6-5.2s6.9 3 8.6 5.2c1.6 2.1 2.4 2.8 3.9 2.8 1.6 0 2.6-.9 4.1-2.8 1-1.3 2.9-1.5 4.2-.5 1.3 1 1.5 2.9.5 4.2-1.4 1.7-4 5.1-8.8 5.1zM161 0h-24c-1.7 0-3 1.3-3 3v24c0 1.7 1.3 3 3 3h24c1.7 0 3-1.3 3-3v-24c0-1.7-1.3-3-3-3zm-6 21.8c0 .8-.5 1.2-1.3 1.2h-8.4c-.8 0-1.3-.4-1.3-1.2v-14.2c0-.8.5-1.6 1.3-1.6h1.5c.8 0 1.2.8 1.2 1.6v12.4h5.7c.8 0 1.3 0 1.3.8v1z"/></svg>