<svg xmlns="http://www.w3.org/2000/svg" viewBox="0 0 284 314" enable-background="new 0 0 284 314"><path stroke="#5FE" stroke-width="8" stroke-linecap="round" stroke-linejoin="round" stroke-miterlimit="10" d="M282 131.4c-6-72.5-65.7-129.4-139.7-129.4h-.3c-73.9 0-133.7 56.9-139.6 129.4-.4 4.3 4.1 4.7 6.2 1.5 10.7-16.2 30.3-25.7 51.4-24.7 30.7 1.4 55.6 26.3 57 57 1.5 34.5-25.9 62.8-60 62.8-10.5 0-20.3-2.7-28.9-7.4-1.6-.9-3.6-.6-4.8.8-5.6 5.9-8.8 13.9-8.2 22.8 1 14.7 12.9 26.7 27.7 27.8 6.4.5 12.4-1.1 17.4-4-.1 1-.2 2.1-.2 3.1 0 16.6 13.4 30 30 30 9.4 0 17.8-3.8 23.3-10.6 3.8 12.2 15.2 21.6 28.7 21.6h.3c13.5 0 24.9-9.4 28.7-21.6 5.5 6.8 13.9 10.9 23.3 10.9 16.6 0 30-13.6 30-30.1 0-1.1-.1-2.2-.2-3.2 5.1 3 11 4.5 17.4 4 14.7-1.1 26.6-13.1 27.7-27.8.6-8.8-2.6-16.9-8.2-22.8-1.3-1.3-3.2-1.7-4.8-.8-8.6 4.7-18.4 7.4-28.9 7.4-34.1 0-61.5-28.4-59.9-62.8 1.4-30.7 26.3-55.6 57-57.1 21.1-1 40.6 8.7 51.4 24.8 2.1 3.1 6.5 2.8 6.2-1.6zm-130 119.6c-4.8 0-9-3.5-10-8-1 4.5-5.2 8-10 8-5.5 0-10-4.5-10-10 0-10 15-20 20-20s20 10 20 20c0 5.5-4.5 10-10 10z" fill="none"/></svg>