<?xml version="1.0" encoding="utf-8"?>
<!-- Generator: Adobe Illustrator 17.1.0, SVG Export Plug-In . SVG Version: 6.00 Build 0)  -->
<!DOCTYPE svg PUBLIC "-//W3C//DTD SVG 1.1//EN" "http://www.w3.org/Graphics/SVG/1.1/DTD/svg11.dtd">
<svg version="1.1" id="Layer_1" xmlns="http://www.w3.org/2000/svg" xmlns:xlink="http://www.w3.org/1999/xlink" x="0px" y="0px"
	 viewBox="0 0 40 40" enable-background="new 0 0 40 40" xml:space="preserve">
<path fill="#31343A" d="M36.3,30.6L25.7,20L36.3,9.4c0.4-0.4,0.4-1,0-1.4L32,3.7c-0.4-0.4-1-0.4-1.4,0L20,14.3L9.4,3.7
	C9,3.3,8.4,3.3,8,3.7L3.7,8c-0.4,0.4-0.4,1,0,1.4L14.3,20L3.7,30.6c-0.4,0.4-0.4,1,0,1.4L8,36.3c0.4,0.4,1,0.4,1.4,0L20,25.7
	l10.6,10.6c0.4,0.4,1,0.4,1.4,0l4.2-4.2C36.7,31.6,36.7,31,36.3,30.6z"/>
</svg>
