<?xml version="1.0" encoding="utf-8"?>
<!-- Generator: Adobe Illustrator 17.1.0, SVG Export Plug-In . SVG Version: 6.00 Build 0)  -->
<!DOCTYPE svg PUBLIC "-//W3C//DTD SVG 1.1//EN" "http://www.w3.org/Graphics/SVG/1.1/DTD/svg11.dtd">
<svg version="1.1" id="Layer_1" xmlns="http://www.w3.org/2000/svg" xmlns:xlink="http://www.w3.org/1999/xlink" x="0px" y="0px"
	 viewBox="0 0 30 30" enable-background="new 0 0 30 30" xml:space="preserve">
<g>
	<circle fill="#F7D64D" cx="15" cy="15" r="15"/>
	<path fill="#31343A" d="M24.4,14.4c0,0,0,2.1-2,2.2c0,0,0.7-7.7-5.4-5.8c-0.9,0.3-1.5,0.8-2,1.4c-0.5-0.6-1.1-1.1-2-1.4
		c-6.2-1.9-5.4,5.8-5.4,5.8c-2,0-2-2.2-2-2.2c-1.6,5.8,6,6.2,8.5,4c0.4-0.3,0.7-0.7,0.9-1.1c0.2,0.4,0.5,0.8,0.9,1.1
		C18.4,20.6,25.9,20.2,24.4,14.4z"/>
</g>
</svg>
