<?xml version="1.0" encoding="utf-8"?>
<!-- Generator: Adobe Illustrator 17.1.0, SVG Export Plug-In . SVG Version: 6.00 Build 0)  -->
<!DOCTYPE svg PUBLIC "-//W3C//DTD SVG 1.1//EN" "http://www.w3.org/Graphics/SVG/1.1/DTD/svg11.dtd">
<svg version="1.1" id="Layer_1" xmlns="http://www.w3.org/2000/svg" xmlns:xlink="http://www.w3.org/1999/xlink" x="0px" y="0px"
	 viewBox="0 0 30 30" enable-background="new 0 0 30 30" xml:space="preserve">
<g>
	<circle fill="#F7D64D" cx="15" cy="15" r="15"/>
	<path fill="#31343A" d="M23.7,11.3c-1.4,0.2-1.4,1.5-1.4,1.5s0.8-1.3,1.9-1c1.5,0.5,1.6,3.9-1.3,5c-2.9,1.1-4.4-0.2-4.4-0.2
		s0.7-0.7,0.3-2.3c-0.5-1.6-1.7-1.6-2.5-1.4c-0.4,0.1-0.9,0.4-1.3,0.8c-0.4-0.4-0.9-0.7-1.3-0.8c-0.7-0.2-2-0.2-2.5,1.4
		c-0.5,1.6,0.3,2.3,0.3,2.3s-1.6,1.2-4.4,0.2c-2.9-1.1-2.8-4.5-1.3-5c1-0.3,1.9,1,1.9,1s0-1.3-1.4-1.5c-2.4-0.4-4.4,4.1,1,6.6
		c4.1,1.9,6.7,0.4,7.8-1.3c1,1.7,3.7,3.2,7.8,1.3C28.1,15.4,26.1,10.9,23.7,11.3z"/>
</g>
</svg>
