<?xml version="1.0" encoding="utf-8"?>
<!-- Generator: Adobe Illustrator 17.1.0, SVG Export Plug-In . SVG Version: 6.00 Build 0)  -->
<!DOCTYPE svg PUBLIC "-//W3C//DTD SVG 1.1//EN" "http://www.w3.org/Graphics/SVG/1.1/DTD/svg11.dtd">
<svg version="1.1" id="Layer_1" xmlns="http://www.w3.org/2000/svg" xmlns:xlink="http://www.w3.org/1999/xlink" x="0px" y="0px"
	 viewBox="0 0 30 30" enable-background="new 0 0 30 30" xml:space="preserve">
<path fill="#31343A" d="M15,0C6.7,0,0,6.7,0,15c0,8.3,6.7,15,15,15c8.3,0,15-6.7,15-15C30,6.7,23.3,0,15,0z M13.8,15.7
	c0,0-8.3,1-9.1,0.8c0,0-0.4-0.7-0.2-1c0.2-0.3,7.4-2.1,8.3-1.9C12.9,13.5,14,15.1,13.8,15.7z M25.3,16.4c-0.8,0.3-9.1-0.8-9.1-0.8
	c-0.2-0.6,0.9-2.1,0.9-2.1c0.9-0.2,8.1,1.5,8.3,1.9C25.6,15.8,25.3,16.4,25.3,16.4z"/>
</svg>
