<?xml version="1.0" encoding="utf-8"?>
<!-- Generator: Adobe Illustrator 17.1.0, SVG Export Plug-In . SVG Version: 6.00 Build 0)  -->
<!DOCTYPE svg PUBLIC "-//W3C//DTD SVG 1.1//EN" "http://www.w3.org/Graphics/SVG/1.1/DTD/svg11.dtd">
<svg version="1.1" id="Layer_1" xmlns="http://www.w3.org/2000/svg" xmlns:xlink="http://www.w3.org/1999/xlink" x="0px" y="0px"
	 viewBox="0 0 30 30" enable-background="new 0 0 30 30" xml:space="preserve">
<path fill="#31343A" d="M15,0C6.7,0,0,6.7,0,15s6.7,15,15,15c8.3,0,15-6.7,15-15S23.3,0,15,0z M22.8,17.9c-4.1,1.9-6.7,0.4-7.8-1.3
	c-1,1.7-3.7,3.2-7.8,1.3c-5.3-2.5-3.4-7-1-6.6c1.4,0.2,1.4,1.5,1.4,1.5s-0.8-1.3-1.9-1c-1.5,0.5-1.6,3.9,1.3,5
	c2.9,1.1,4.4-0.2,4.4-0.2s-0.7-0.7-0.3-2.3c0.5-1.6,1.7-1.6,2.5-1.4c0.4,0.1,0.9,0.3,1.3,0.8c0.4-0.4,0.9-0.7,1.3-0.8
	c0.7-0.2,2-0.2,2.5,1.4c0.5,1.6-0.3,2.3-0.3,2.3s1.6,1.2,4.4,0.2s2.8-4.5,1.3-5c-1-0.3-1.9,1-1.9,1s0-1.3,1.4-1.5
	C26.1,10.9,28.1,15.4,22.8,17.9z"/>
</svg>
