<?xml version="1.0" encoding="utf-8"?>
<!-- Generator: Adobe Illustrator 17.1.0, SVG Export Plug-In . SVG Version: 6.00 Build 0)  -->
<!DOCTYPE svg PUBLIC "-//W3C//DTD SVG 1.1//EN" "http://www.w3.org/Graphics/SVG/1.1/DTD/svg11.dtd">
<svg version="1.1" id="Layer_1" xmlns="http://www.w3.org/2000/svg" xmlns:xlink="http://www.w3.org/1999/xlink" x="0px" y="0px"
	 viewBox="0 0 30 30" enable-background="new 0 0 30 30" xml:space="preserve">
<path fill="#31343A" d="M15,0C6.7,0,0,6.7,0,15c0,8.3,6.7,15,15,15c8.3,0,15-6.7,15-15C30,6.7,23.3,0,15,0z M13.3,16.4
	c-0.8,0.6-4.8,2.5-8.8-1.3c0,0,1.2,0.9,3.1,0.6s2.6-3,4.3-3.1C15.1,12.4,14.9,15.2,13.3,16.4z M16.7,16.4c-1.5-1.2-1.8-4,1.4-3.8
	c1.7,0.1,2.4,2.7,4.3,3.1s3.1-0.6,3.1-0.6C21.5,18.9,17.5,17.1,16.7,16.4z"/>
</svg>
