<?xml version="1.0" encoding="utf-8"?>
<!-- Generator: Adobe Illustrator 17.1.0, SVG Export Plug-In . SVG Version: 6.00 Build 0)  -->
<!DOCTYPE svg PUBLIC "-//W3C//DTD SVG 1.1//EN" "http://www.w3.org/Graphics/SVG/1.1/DTD/svg11.dtd">
<svg version="1.1" id="Layer_1" xmlns="http://www.w3.org/2000/svg" xmlns:xlink="http://www.w3.org/1999/xlink" x="0px" y="0px"
	 viewBox="0 0 30 30" enable-background="new 0 0 30 30" xml:space="preserve">
<path fill="#31343A" d="M15,0C6.7,0,0,6.7,0,15s6.7,15,15,15c8.3,0,15-6.7,15-15S23.3,0,15,0z M15.9,18.4c-0.4-0.3-0.7-0.7-0.9-1.1
	c-0.2,0.4-0.6,0.8-0.9,1.1c-2.5,2.2-10,1.8-8.5-4c0,0,0,2.1,2,2.2c0,0-0.7-7.7,5.4-5.8c0.9,0.3,1.5,0.8,2,1.4c0.5-0.6,1.1-1.1,2-1.4
	c6.2-1.9,5.4,5.8,5.4,5.8c2,0,2-2.2,2-2.2C25.9,20.2,18.4,20.6,15.9,18.4z"/>
</svg>
