<?xml version="1.0" encoding="utf-8"?>
<!-- Generator: Adobe Illustrator 17.1.0, SVG Export Plug-In . SVG Version: 6.00 Build 0)  -->
<!DOCTYPE svg PUBLIC "-//W3C//DTD SVG 1.1//EN" "http://www.w3.org/Graphics/SVG/1.1/DTD/svg11.dtd">
<svg version="1.1" id="Layer_1" xmlns="http://www.w3.org/2000/svg" xmlns:xlink="http://www.w3.org/1999/xlink" x="0px" y="0px"
	 viewBox="0 0 30 30" enable-background="new 0 0 30 30" xml:space="preserve">
<path fill="#31343A" d="M15,30c8.3,0,15-6.7,15-15c0-8.3-6.7-15-15-15C6.7,0,0,6.7,0,15C0,23.3,6.7,30,15,30z M6.2,15.7
	c0-0.4,0.3-1.7,0.7-2c0.4-0.4,2.8-0.9,4.2-1c1.4-0.1,2.9-0.1,3.9,0.1c1-0.2,2.5-0.2,3.9-0.1c1.4,0.1,3.9,0.7,4.2,1
	c0.4,0.4,0.6,1.6,0.7,2c0,0,0.1,1.1-0.5,1.2s-0.8-0.5-1-0.5c-0.2,0,0,0.8-0.3,0.8c-0.4,0-0.9-0.9-1.1-0.9c-0.2,0,0.1,1-0.4,1
	c-0.5,0-0.6-0.7-0.9-0.7c-0.3,0-0.2,0.6-0.5,0.6c-0.4,0-0.8-0.7-1-0.7c-0.2,0-0.2,0.8-0.7,0.8c-0.5,0-0.8-0.6-1.1-0.6
	c-0.3,0-0.1,0.7-0.7,0.7c-0.4,0-0.6-0.4-0.7-0.6c-0.1,0.2-0.3,0.6-0.7,0.6c-0.6,0-0.4-0.8-0.7-0.7c-0.3,0-0.6,0.6-1.1,0.6
	c-0.5,0-0.4-0.7-0.7-0.8c-0.2,0-0.6,0.7-1,0.7c-0.4,0-0.2-0.6-0.5-0.6c-0.3,0-0.4,0.7-0.9,0.7c-0.5,0-0.2-1-0.4-1
	c-0.2,0-0.7,0.9-1.1,0.9c-0.4,0-0.2-0.7-0.3-0.8c-0.2,0-0.4,0.6-1,0.5S6.2,15.7,6.2,15.7z"/>
</svg>
