<?xml version="1.0" encoding="utf-8"?>
<!-- Generator: Adobe Illustrator 17.1.0, SVG Export Plug-In . SVG Version: 6.00 Build 0)  -->
<!DOCTYPE svg PUBLIC "-//W3C//DTD SVG 1.1//EN" "http://www.w3.org/Graphics/SVG/1.1/DTD/svg11.dtd">
<svg version="1.1" id="Layer_1" xmlns="http://www.w3.org/2000/svg" xmlns:xlink="http://www.w3.org/1999/xlink" x="0px" y="0px"
	 viewBox="0 0 30 30" enable-background="new 0 0 30 30" xml:space="preserve">
<path fill="#31343A" d="M14.8,0c2.1,0,4,0.3,5.9,1.1s3.4,1.8,4.8,3.1c1.4,1.3,2.5,2.9,3.3,4.7c0.8,1.8,1.2,3.8,1.3,5.8
	c0,2.1-0.3,4-1.1,5.9c-0.8,1.8-1.8,3.4-3.2,4.8c-1.3,1.4-2.9,2.5-4.7,3.3c-1.8,0.8-3.7,1.2-5.8,1.3c-2.1,0-4-0.4-5.9-1.1
	c-1.8-0.8-3.4-1.8-4.8-3.1c-1.4-1.3-2.5-2.9-3.3-4.7C0.5,19.2,0,17.3,0,15.2c0-2.1,0.3-4,1.1-5.9s1.8-3.4,3.2-4.8S7.2,2.1,9,1.2
	C10.8,0.4,12.7,0,14.8,0z M12.6,24.3c0.5,0,1.4-0.3,2.5-0.8c1.2-0.5,2.4-1.4,3.7-2.6l-0.6-0.8c-0.5,0.4-1,0.7-1.5,0.9
	c-0.5,0.2-0.7,0.3-0.9,0.3c-0.3,0-0.3-0.4-0.1-1.2l1.4-5.2c0.3-1,0.3-1.7,0.2-2.3c-0.1-0.6-0.4-0.8-0.9-0.8c-0.6,0-1.6,0.3-2.8,0.9
	c-1.3,0.6-2.6,1.4-3.8,2.5l0.5,0.8c0.4-0.3,0.9-0.5,1.4-0.8c0.5-0.2,0.9-0.4,1-0.4c0.3,0,0.3,0.4,0,1.1l-1.2,5
	c-0.3,1.4-0.4,2.3-0.1,2.7C11.7,24.1,12.1,24.3,12.6,24.3z M16.5,5c-1,0-1.7,0.3-2.2,0.8c-0.5,0.6-0.7,1.1-0.7,1.6
	c0,0.6,0.1,1.1,0.5,1.4c0.3,0.3,0.9,0.5,1.6,0.5c0.9,0,1.5-0.2,2-0.8c0.5-0.5,0.7-1.1,0.7-1.7c0-0.5-0.1-0.9-0.4-1.3
	C17.7,5.2,17.2,5,16.5,5z"/>
</svg>
