<?xml version="1.0" encoding="utf-8"?>
<!-- Generator: Adobe Illustrator 17.1.0, SVG Export Plug-In . SVG Version: 6.00 Build 0)  -->
<!DOCTYPE svg PUBLIC "-//W3C//DTD SVG 1.1//EN" "http://www.w3.org/Graphics/SVG/1.1/DTD/svg11.dtd">
<svg version="1.1" id="Layer_1" xmlns="http://www.w3.org/2000/svg" xmlns:xlink="http://www.w3.org/1999/xlink" x="0px" y="0px"
	 viewBox="0 0 164 30" enable-background="new 0 0 164 30" xml:space="preserve">
<g>
	<path fill="#FFE36C" d="M27,0H3C1.3,0,0,1.3,0,3v24c0,1.7,1.3,3,3,3h24c1.7,0,3-1.3,3-3V3C30,1.3,28.7,0,27,0z M22,22.5
		c0,0.8,0,1.5-0.8,1.5h-0.8c-0.8,0-1.4-0.7-1.4-1.2v0c0-0.1,0.1-0.7,0.1-0.7h0c0,0-1.5,1.8-4.4,1.8c-4.3,0-8.2-3.2-8.2-8.4
		c0-5.1,3.7-8.7,8.8-8.7c2.7,0,4.8,1,5.4,1.5c0.7,0.5,0.8,1.1,0.3,1.8l-0.6,1c-0.4,0.7-1,0.8-1.8,0.4s-1.7-0.8-3.1-0.8
		c-3.3,0-4.8,2.2-4.8,4.8c0,3.1,2.3,5,4.8,5c2.4,0,3.5-1.4,3.5-1.4V18h-1.2c-0.8,0-1.8-0.7-1.8-1.5v-0.9c0-0.8,0.9-1.6,1.8-1.6h3.4
		c0.8,0,0.8,0.7,0.8,1.6V22.5z"/>
	<g>
		<path fill="#FFE36C" d="M119.5,22c-4.6,0-6.9-3-8.6-5.2c-1.6-2.1-2.4-2.8-3.9-2.8c-1.5,0-2.3,0.8-3.9,2.8c-1.7,2.2-4,5.2-8.6,5.2
			c-4.6,0-6.9-3-8.6-5.2C84.3,14.8,83.5,14,82,14c-1.5,0-2.3,0.8-3.9,2.8c-1.7,2.2-4,5.2-8.6,5.2s-6.9-3-8.6-5.2
			C59.3,14.8,58.5,14,57,14c-1.5,0-2.3,0.8-3.9,2.8c-1.7,2.2-4,5.2-8.6,5.2c-4.8,0-7.5-3.4-8.9-5.2c-1-1.3-0.8-3.2,0.5-4.2
			c1.3-1,3.2-0.8,4.2,0.5c1.5,1.9,2.5,2.8,4.1,2.8c1.5,0,2.3-0.8,3.9-2.8C50.1,11,52.4,8,57,8c4.6,0,6.9,3,8.6,5.2
			c1.6,2.1,2.4,2.8,3.9,2.8c1.5,0,2.3-0.8,3.9-2.8C75.1,11,77.4,8,82,8c4.6,0,6.9,3,8.6,5.2c1.6,2.1,2.4,2.8,3.9,2.8
			c1.5,0,2.3-0.8,3.9-2.8c1.7-2.2,4-5.2,8.6-5.2c4.6,0,6.9,3,8.6,5.2c1.6,2.1,2.4,2.8,3.9,2.8c1.6,0,2.6-0.9,4.1-2.8
			c1-1.3,2.9-1.5,4.2-0.5c1.3,1,1.5,2.9,0.5,4.2C126.9,18.6,124.3,22,119.5,22z"/>
	</g>
	<path fill="#FFE36C" d="M161,0h-24c-1.7,0-3,1.3-3,3v24c0,1.7,1.3,3,3,3h24c1.7,0,3-1.3,3-3V3C164,1.3,162.7,0,161,0z M155,21.8
		c0,0.8-0.5,1.2-1.3,1.2h-8.4c-0.8,0-1.3-0.4-1.3-1.2V7.6c0-0.8,0.5-1.6,1.3-1.6h1.5c0.8,0,1.2,0.8,1.2,1.6V20h5.7
		c0.8,0,1.3,0,1.3,0.8V21.8z"/>
	<g>
	</g>
</g>
</svg>
